<svg xmlns="http://www.w3.org/2000/svg" viewBox="0 0 1600 900" role="img" aria-labelledby="title desc">
  <title id="title">Ontoverse logo with rectangular frontal time plane</title>
  <desc id="desc">Detailed dark neon Ontoverse SVG logo with a history-space sphere, dense branching trajectories, glowing event-nodes, a ruby frontal time plane, and a separated wordmark.</desc>
  <defs>
    <radialGradient id="bg" cx="42%" cy="48%" r="82%"><stop offset="0" stop-color="#08152b"/><stop offset="0.58" stop-color="#020713"/><stop offset="1" stop-color="#00030a"/></radialGradient>
    <radialGradient id="sphereFill" cx="30%" cy="50%" r="66%"><stop offset="0" stop-color="#0d3364" stop-opacity="0.46"/><stop offset="0.46" stop-color="#061936" stop-opacity="0.27"/><stop offset="1" stop-color="#020813" stop-opacity="0"/></radialGradient>
    <linearGradient id="blueViolet" x1="45" y1="160" x2="730" y2="745" gradientUnits="userSpaceOnUse"><stop offset="0" stop-color="#12ecff"/><stop offset="0.38" stop-color="#2b8bff"/><stop offset="0.68" stop-color="#875dff"/><stop offset="1" stop-color="#ff55e3"/></linearGradient>
    <linearGradient id="warmPath" x1="340" y1="255" x2="720" y2="655" gradientUnits="userSpaceOnUse"><stop offset="0" stop-color="#ffffff"/><stop offset="0.46" stop-color="#ffd868"/><stop offset="1" stop-color="#ff356c"/></linearGradient>
    <linearGradient id="planeFill" x1="590" y1="130" x2="705" y2="770" gradientUnits="userSpaceOnUse"><stop offset="0" stop-color="#ff6678" stop-opacity="0.05"/><stop offset="0.46" stop-color="#ff1f47" stop-opacity="0.30"/><stop offset="1" stop-color="#ff6678" stop-opacity="0.08"/></linearGradient>
    <linearGradient id="word" x1="870" y1="420" x2="1510" y2="420" gradientUnits="userSpaceOnUse"><stop offset="0" stop-color="#ffffff"/><stop offset="0.48" stop-color="#f4fbff"/><stop offset="1" stop-color="#d7e4ff"/></linearGradient>
    <filter id="cyanGlow" x="-80%" y="-80%" width="260%" height="260%"><feGaussianBlur stdDeviation="5" result="blur"/><feColorMatrix in="blur" type="matrix" values="0 0 0 0 0.04 0 0 0 0 0.58 0 0 0 0 1 0 0 0 0.9 0" result="color"/><feMerge><feMergeNode in="color"/><feMergeNode in="SourceGraphic"/></feMerge></filter>
    <filter id="violetGlow" x="-80%" y="-80%" width="260%" height="260%"><feGaussianBlur stdDeviation="5" result="blur"/><feColorMatrix in="blur" type="matrix" values="0 0 0 0 0.62 0 0 0 0 0.18 0 0 0 0 1 0 0 0 0.9 0" result="color"/><feMerge><feMergeNode in="color"/><feMergeNode in="SourceGraphic"/></feMerge></filter>
    <filter id="rubyGlow" x="-80%" y="-80%" width="260%" height="260%"><feGaussianBlur stdDeviation="7" result="blur"/><feColorMatrix in="blur" type="matrix" values="1 0 0 0 1 0 0 0 0 0.04 0 0 0 0 0.13 0 0 0 0.95 0" result="color"/><feMerge><feMergeNode in="color"/><feMergeNode in="SourceGraphic"/></feMerge></filter>
    <filter id="whiteGlow" x="-60%" y="-70%" width="220%" height="240%"><feDropShadow dx="0" dy="0" stdDeviation="3" flood-color="#ffffff" flood-opacity="0.48"/></filter>
  </defs>
  <rect width="1600" height="900" fill="url(#bg)"/>
  <g transform="translate(54 0)">
    <circle cx="330" cy="450" r="337" fill="url(#sphereFill)"/>
    <g fill="none" stroke-linecap="round" opacity="0.38">
      <circle cx="330" cy="450" r="322" stroke="#1a8cff" stroke-width="2"/>
      <circle cx="330" cy="450" r="246" stroke="#155aaf" stroke-width="1" stroke-dasharray="4 16"/>
      <circle cx="330" cy="450" r="168" stroke="#253b99" stroke-width="1" stroke-dasharray="3 12"/>
      <ellipse cx="330" cy="450" rx="322" ry="178" stroke="#1d7fff" stroke-width="1"/>
      <ellipse cx="330" cy="450" rx="322" ry="104" stroke="#2b6eff" stroke-width="1"/>
      <ellipse cx="330" cy="450" rx="322" ry="47" stroke="#3c57d7" stroke-width="1"/>
      <ellipse cx="330" cy="450" rx="92" ry="322" stroke="#235eb8" stroke-width="1"/>
      <ellipse cx="330" cy="450" rx="172" ry="322" stroke="#235eb8" stroke-width="1"/>
      <ellipse cx="330" cy="450" rx="256" ry="322" stroke="#235eb8" stroke-width="1"/>
      <path d="M8 450 H652" stroke="#2a7aff" stroke-width="1"/>
      <path d="M330 128 V772" stroke="#2a7aff" stroke-width="1"/>
      <path d="M58 276 C196 374 464 374 602 276" stroke="#245b9f" stroke-width="1"/>
      <path d="M58 624 C196 526 464 526 602 624" stroke="#245b9f" stroke-width="1"/>
    </g>
    <g opacity="0.42" fill="#8ddfff">
      <circle cx="76" cy="349" r="1.8"/><circle cx="109" cy="248" r="1.5"/><circle cx="154" cy="657" r="1.8"/><circle cx="190" cy="181" r="1.4"/><circle cx="232" cy="715" r="1.5"/><circle cx="301" cy="162" r="1.5"/><circle cx="430" cy="191" r="1.3"/><circle cx="506" cy="271" r="1.5"/><circle cx="526" cy="635" r="1.5"/><circle cx="572" cy="403" r="1.4"/><circle cx="610" cy="510" r="1.3"/><circle cx="413" cy="704" r="1.2"/><circle cx="252" cy="320" r="1.3"/>
    </g>
    <g fill="none" stroke-linecap="round" stroke-linejoin="round">
      <path d="M40 450 C148 250 267 151 428 152 C522 153 606 238 668 334" stroke="#22e6ff" stroke-width="4.6" filter="url(#cyanGlow)"/>
      <path d="M40 450 C148 650 267 749 428 748 C522 747 606 662 668 566" stroke="#8b62ff" stroke-width="4.6" filter="url(#violetGlow)"/>
      <path d="M40 450 C156 355 260 282 404 260 C524 242 604 306 648 385" stroke="#62eaff" stroke-width="3.8" filter="url(#cyanGlow)"/>
      <path d="M40 450 C156 545 260 618 404 640 C524 658 604 594 648 515" stroke="#bb5cff" stroke-width="3.8" filter="url(#violetGlow)"/>
      <path d="M40 450 C213 450 378 450 672 450" stroke="#f8fbff" stroke-width="4" filter="url(#whiteGlow)"/>
      <path d="M250 450 C298 342 356 304 430 319 C515 336 568 388 645 401" stroke="#37baff" stroke-width="3.4" filter="url(#cyanGlow)"/>
      <path d="M250 450 C298 558 356 596 430 581 C515 564 568 512 645 499" stroke="#765dff" stroke-width="3.4" filter="url(#violetGlow)"/>
      <path d="M250 450 C334 394 414 368 497 382 C573 394 628 371 695 334" stroke="#4f89ff" stroke-width="2.8" filter="url(#cyanGlow)"/>
      <path d="M250 450 C334 506 414 532 497 518 C573 506 628 529 695 566" stroke="#a75cff" stroke-width="2.8" filter="url(#violetGlow)"/>
      <path d="M340 330 C494 303 601 309 703 334" stroke="url(#warmPath)" stroke-width="3.2" filter="url(#cyanGlow)"/>
      <path d="M340 570 C494 597 601 591 703 566" stroke="url(#warmPath)" stroke-width="3.2" filter="url(#violetGlow)"/>
    </g>
    <g fill="none" stroke-dasharray="3 12" stroke-linecap="round" opacity="0.92">
      <path d="M40 450 C98 189 310 65 560 143 C658 174 724 258 703 334" stroke="#177bff" stroke-width="3"/>
      <path d="M40 450 C98 711 310 835 560 757 C658 726 724 642 703 566" stroke="#7444ff" stroke-width="3"/>
      <path d="M104 320 C220 190 385 197 526 292 C593 337 630 372 645 401" stroke="#75dfff" stroke-width="2.6"/>
      <path d="M104 580 C220 710 385 703 526 608 C593 563 630 528 645 499" stroke="#dd66ff" stroke-width="2.6"/>
      <path d="M250 450 C317 335 420 279 520 315 C602 344 621 377 645 401" stroke="#14e8ff" stroke-width="2.6"/>
      <path d="M250 450 C317 565 420 621 520 585 C602 556 621 523 645 499" stroke="#ee65ff" stroke-width="2.6"/>
      <path d="M365 370 C458 410 570 420 672 450" stroke="#f3f9ff" stroke-width="2.2"/>
      <path d="M365 530 C458 490 570 480 672 450" stroke="#d068ff" stroke-width="2.2"/>
      <path d="M210 270 C308 360 458 358 595 330" stroke="#308cff" stroke-width="2"/>
      <path d="M210 630 C308 540 458 542 595 570" stroke="#a34cff" stroke-width="2"/>
    </g>
    <g filter="url(#rubyGlow)">
      <polygon points="602,212 693,155 693,745 602,688" fill="url(#planeFill)" stroke="#ff4562" stroke-width="4"/>
      <line x1="693" y1="155" x2="693" y2="745" stroke="#ff6b7d" stroke-width="5"/>
      <line x1="602" y1="212" x2="602" y2="688" stroke="#ff274d" stroke-width="2.2" opacity="0.74"/>
      <g opacity="0.38" stroke="#ff7084" stroke-width="1.2" fill="none">
        <path d="M614 230 C675 276 675 348 614 392"/><path d="M614 408 C675 450 675 522 614 566"/><path d="M614 588 C675 628 675 681 614 688"/>
        <path d="M616 250 L683 188"/><path d="M616 308 L684 273"/><path d="M616 368 L684 355"/><path d="M616 450 L684 450"/><path d="M616 532 L684 545"/><path d="M616 592 L684 627"/><path d="M616 655 L684 722"/>
        <circle cx="646" cy="302" r="4"/><circle cx="664" cy="391" r="3"/><circle cx="650" cy="450" r="5"/><circle cx="665" cy="510" r="3"/><circle cx="646" cy="598" r="4"/>
      </g>
    </g>
    <g stroke="#f7fbff" stroke-width="4.5" stroke-linecap="round" stroke-dasharray="16 14" filter="url(#whiteGlow)">
      <line x1="40" y1="450" x2="766" y2="450"/>
      <path d="M766 421 L813 450 L766 479" fill="none" stroke-dasharray="0"/>
    </g>
    <g filter="url(#cyanGlow)">
      <circle cx="40" cy="450" r="18" fill="#071224" stroke="#f4fbff" stroke-width="6"/>
      <circle cx="250" cy="450" r="9" fill="#f7fbff" stroke="#8bd7ff" stroke-width="3"/>
      <circle cx="118" cy="332" r="6" fill="#dbfbff" stroke="#17ddff" stroke-width="4"/>
      <circle cx="118" cy="568" r="6" fill="#efe7ff" stroke="#9b63ff" stroke-width="4"/>
      <circle cx="183" cy="260" r="6" fill="#dbfbff" stroke="#1bdfff" stroke-width="4"/>
      <circle cx="183" cy="640" r="6" fill="#efe7ff" stroke="#9b63ff" stroke-width="4"/>
      <circle cx="248" cy="185" r="6" fill="#dbfbff" stroke="#1bdfff" stroke-width="4"/>
      <circle cx="248" cy="715" r="6" fill="#efe7ff" stroke="#9b63ff" stroke-width="4"/>
      <circle cx="340" cy="330" r="6" fill="#dbfbff" stroke="#1bdfff" stroke-width="4"/>
      <circle cx="340" cy="570" r="6" fill="#efe7ff" stroke="#9b63ff" stroke-width="4"/>
      <circle cx="430" cy="319" r="6" fill="#dbfbff" stroke="#1bdfff" stroke-width="4"/>
      <circle cx="430" cy="581" r="6" fill="#efe7ff" stroke="#8267ff" stroke-width="4"/>
      <circle cx="497" cy="382" r="5" fill="#dffbff" stroke="#5ce9ff" stroke-width="3"/>
      <circle cx="497" cy="518" r="5" fill="#f2dfff" stroke="#ba62ff" stroke-width="3"/>
      <circle cx="645" cy="401" r="6" fill="#f7fbff" stroke="#8bf4ff" stroke-width="4"/>
      <circle cx="672" cy="450" r="7" fill="#f7fbff" stroke="#f7fbff" stroke-width="4"/>
      <circle cx="645" cy="499" r="6" fill="#f7fbff" stroke="#cb86ff" stroke-width="4"/>
    </g>
    <g filter="url(#rubyGlow)">
      <circle cx="703" cy="334" r="11" fill="#fff4d8" stroke="#ffbd3c" stroke-width="6"/>
      <circle cx="703" cy="566" r="11" fill="#fff4d8" stroke="#ffbd3c" stroke-width="6"/>
    </g>
  </g>
  <g transform="translate(875 0)"><text x="0" y="485" fill="url(#word)" font-family="Orbitron, Eurostile, Rajdhani, Segoe UI, Arial, sans-serif" font-size="118" font-weight="400" letter-spacing="2" filter="url(#whiteGlow)">Ontoverse</text></g>
</svg>
