<svg xmlns="http://www.w3.org/2000/svg" viewBox="0 0 1600 900" role="img" aria-labelledby="title desc">
  <title id="title">Ontoverse logo with oval frontal time plane</title>
  <desc id="desc">Alternative dark neon Ontoverse logo direction with an oval ruby frontal time membrane.</desc>
  <defs>
    <radialGradient id="bg" cx="42%" cy="48%" r="72%">
      <stop offset="0" stop-color="#071224"/>
      <stop offset="0.52" stop-color="#020711"/>
      <stop offset="1" stop-color="#01040a"/>
    </radialGradient>
    <linearGradient id="cyanBlue" x1="120" y1="220" x2="640" y2="690" gradientUnits="userSpaceOnUse">
      <stop offset="0" stop-color="#10e8ff"/>
      <stop offset="0.42" stop-color="#5a91ff"/>
      <stop offset="0.72" stop-color="#a06cff"/>
      <stop offset="1" stop-color="#ff65df"/>
    </linearGradient>
    <linearGradient id="goldPath" x1="420" y1="250" x2="690" y2="640" gradientUnits="userSpaceOnUse">
      <stop offset="0" stop-color="#faffff"/><stop offset="0.45" stop-color="#fff4bd"/><stop offset="1" stop-color="#ffb42e"/>
    </linearGradient>
    <radialGradient id="membrane" cx="45%" cy="50%" r="68%">
      <stop offset="0" stop-color="#ff405c" stop-opacity="0.08"/>
      <stop offset="0.68" stop-color="#ff253f" stop-opacity="0.34"/>
      <stop offset="1" stop-color="#ff6b78" stop-opacity="0.16"/>
    </radialGradient>
    <linearGradient id="word" x1="820" y1="420" x2="1500" y2="420" gradientUnits="userSpaceOnUse">
      <stop offset="0" stop-color="#ffffff"/><stop offset="0.55" stop-color="#f7fbff"/><stop offset="1" stop-color="#d6e2ff"/>
    </linearGradient>
    <filter id="glowCyan" x="-80%" y="-80%" width="260%" height="260%"><feGaussianBlur stdDeviation="5" result="blur"/><feColorMatrix in="blur" type="matrix" values="0 0 0 0 0.08 0 0 0 0 0.72 0 0 0 0 1 0 0 0 0.9 0" result="color"/><feMerge><feMergeNode in="color"/><feMergeNode in="SourceGraphic"/></feMerge></filter>
    <filter id="glowRuby" x="-80%" y="-80%" width="260%" height="260%"><feGaussianBlur stdDeviation="7" result="blur"/><feColorMatrix in="blur" type="matrix" values="1 0 0 0 1 0 0 0 0 0.04 0 0 0 0 0.12 0 0 0 0.95 0" result="color"/><feMerge><feMergeNode in="color"/><feMergeNode in="SourceGraphic"/></feMerge></filter>
    <filter id="softShadow" x="-20%" y="-40%" width="140%" height="180%"><feDropShadow dx="0" dy="0" stdDeviation="3" flood-color="#ffffff" flood-opacity="0.28"/></filter>
  </defs>
  <rect width="1600" height="900" fill="url(#bg)"/>
  <g opacity="0.22"><circle cx="430" cy="450" r="300" fill="none" stroke="#153c74" stroke-width="1"/><circle cx="430" cy="450" r="230" fill="none" stroke="#1e5b9f" stroke-width="1" stroke-dasharray="5 16"/><circle cx="430" cy="450" r="160" fill="none" stroke="#3d248d" stroke-width="1"/></g>
  <g transform="translate(70 25)">
    <g fill="none" stroke-linecap="round" stroke-linejoin="round">
      <path d="M70 430 C125 236 234 158 404 160 C496 161 584 222 650 318" stroke="#26dfff" stroke-width="5" filter="url(#glowCyan)"/>
      <path d="M70 430 C116 618 242 730 423 713 C520 704 592 646 650 535" stroke="#866dff" stroke-width="5" filter="url(#glowCyan)"/>
      <path d="M118 430 C188 270 289 224 433 237 C548 248 607 315 630 389" stroke="#66e7ff" stroke-width="5" filter="url(#glowCyan)"/>
      <path d="M118 430 C183 583 292 643 427 623 C530 608 602 557 637 486" stroke="#b663ff" stroke-width="5" filter="url(#glowCyan)"/>
      <path d="M235 430 C283 310 342 269 420 304 C495 337 516 394 560 410" stroke="#8cf5ff" stroke-width="4" filter="url(#glowCyan)"/>
      <path d="M235 430 C313 430 380 430 528 430" stroke="#f8fbff" stroke-width="5" filter="url(#softShadow)"/>
      <path d="M235 430 C311 490 356 548 431 565 C512 584 566 536 615 512" stroke="#568dff" stroke-width="4" filter="url(#glowCyan)"/>
      <path d="M235 430 C314 365 386 340 470 358 C552 376 600 346 650 318" stroke="#2a8cff" stroke-width="4" filter="url(#glowCyan)"/>
      <path d="M235 430 C350 474 463 469 618 430" stroke="#8976ff" stroke-width="4" filter="url(#glowCyan)"/>
      <path d="M235 430 C344 523 439 506 650 535" stroke="#7b61ff" stroke-width="4" filter="url(#glowCyan)"/>
      <path d="M382 160 C522 182 650 248 688 318" stroke="url(#goldPath)" stroke-width="4"/>
      <path d="M423 713 C558 695 647 615 688 535" stroke="url(#goldPath)" stroke-width="4"/>
    </g>
    <g fill="none" stroke-linecap="round" stroke-dasharray="2 13" opacity="0.95">
      <path d="M70 430 C118 197 348 98 600 184 C673 209 707 261 688 318" stroke="#188cff" stroke-width="4"/>
      <path d="M70 430 C126 690 360 791 594 700 C673 669 707 597 688 535" stroke="#7c48ff" stroke-width="4"/>
      <path d="M235 430 C311 330 391 270 493 300 C589 328 602 366 528 389" stroke="#00d8ff" stroke-width="4"/>
      <path d="M235 430 C314 504 390 588 493 557 C590 527 602 489 528 469" stroke="#9b60ff" stroke-width="4"/>
      <path d="M420 304 C542 278 630 295 688 318" stroke="#ffda57" stroke-width="4"/>
      <path d="M431 565 C548 585 633 559 688 535" stroke="#ffc45a" stroke-width="4"/>
    </g>
    <g filter="url(#glowRuby)">
      <ellipse cx="620" cy="430" rx="84" ry="290" fill="url(#membrane)" stroke="#ff405c" stroke-width="5"/>
      <ellipse cx="620" cy="430" rx="61" ry="248" fill="none" stroke="#ff6a78" stroke-width="1.8" opacity="0.42"/>
      <path d="M585 190 C650 254 650 604 585 670" fill="none" stroke="#ff9aa6" stroke-width="2" opacity="0.35"/>
      <g opacity="0.38" stroke="#ff6e82" stroke-width="1"><path d="M572 218 C620 240 648 288 664 342"/><path d="M566 432 C615 426 653 432 688 448"/><path d="M572 642 C620 618 650 568 666 514"/></g>
    </g>
    <g stroke="#f7fbff" stroke-width="5" stroke-linecap="round" stroke-dasharray="18 16" filter="url(#softShadow)"><line x1="70" y1="430" x2="698" y2="430"/><path d="M698 400 L742 430 L698 460" fill="none" stroke-dasharray="0"/></g>
    <g filter="url(#glowCyan)"><circle cx="70" cy="430" r="22" fill="#071224" stroke="#f4fbff" stroke-width="7"/><circle cx="235" cy="430" r="13" fill="#f7fbff"/><circle cx="382" cy="160" r="10" fill="#eaffff" stroke="#2ce7ff" stroke-width="6"/><circle cx="118" cy="284" r="9" fill="#eaffff" stroke="#27e6ff" stroke-width="6"/><circle cx="98" cy="628" r="9" fill="#eaffff" stroke="#8267ff" stroke-width="6"/><circle cx="423" cy="713" r="11" fill="#f8f2ff" stroke="#9b63ff" stroke-width="7"/><circle cx="420" cy="304" r="7" fill="#eaffff" stroke="#28dfff" stroke-width="4"/><circle cx="431" cy="565" r="7" fill="#eaffff" stroke="#538cff" stroke-width="4"/><circle cx="528" cy="389" r="8" fill="#eaffff" stroke="#8bf4ff" stroke-width="5"/><circle cx="528" cy="430" r="9" fill="#eaffff" stroke="#8cf4ff" stroke-width="5"/><circle cx="528" cy="469" r="8" fill="#eaffff" stroke="#b982ff" stroke-width="5"/></g>
    <g filter="url(#glowRuby)"><circle cx="688" cy="318" r="13" fill="#fff4d8" stroke="#ffbd3c" stroke-width="7"/><circle cx="688" cy="535" r="13" fill="#fff4d8" stroke="#ffbd3c" stroke-width="7"/></g>
  </g>
  <g transform="translate(800 0)"><text x="0" y="480" fill="url(#word)" font-family="Orbitron, Eurostile, Rajdhani, Segoe UI, Arial, sans-serif" font-size="122" font-weight="400" letter-spacing="2" filter="url(#softShadow)">Ontoverse</text><text x="4" y="532" fill="#7890aa" font-family="Inter, Segoe UI, Arial, sans-serif" font-size="22" letter-spacing="7" opacity="0.76">HISTORY-SPACE FRAMEWORK</text></g>
</svg>
