<svg xmlns="http://www.w3.org/2000/svg" viewBox="0 0 1600 900" role="img" aria-labelledby="title desc">
  <title id="title">Isometric History-Space</title>
  <desc id="desc">Isometric SVG with root nodes placed on the intended internal node positions, distinct color families per tree, and terminal nodes distributed across the frontal time plane.</desc>
  <defs>
    <radialGradient id="bg" cx="54%" cy="48%" r="88%"><stop offset="0" stop-color="#07162d"/><stop offset="0.68" stop-color="#020713"/><stop offset="1" stop-color="#00030a"/></radialGradient>
    <linearGradient id="plane" x1="1165" y1="70" x2="1410" y2="765" gradientUnits="userSpaceOnUse"><stop offset="0" stop-color="#ff6b7d" stop-opacity="0.05"/><stop offset="0.5" stop-color="#ff234a" stop-opacity="0.34"/><stop offset="1" stop-color="#ff6b7d" stop-opacity="0.10"/></linearGradient>
    <filter id="glow" x="-70%" y="-70%" width="240%" height="240%"><feGaussianBlur stdDeviation="3" result="b"/><feMerge><feMergeNode in="b"/><feMergeNode in="SourceGraphic"/></feMerge></filter>
  </defs>
  <rect width="1600" height="900" fill="url(#bg)"/>
  <text x="46" y="70" fill="#f8fbff" font-family="Segoe UI, Arial, sans-serif" font-size="44">Isometric History-Space</text>
  <text x="46" y="108" fill="#b9c4d9" font-family="Segoe UI, Arial, sans-serif" font-size="22">roots replace the first internal event-nodes; terminal nodes spread across the frontal time plane</text>
  <g stroke="#1f6fc7" fill="none" opacity="0.22">
    <path d="M150 245 L1165 70 L1410 215 L390 365 Z"/>
    <path d="M150 655 L1165 490 L1410 765 L390 825 Z"/>
    <path d="M150 245 V655 M390 365 V825 M1165 70 V490 M1410 215 V765"/>
    <path d="M150 340 L390 460 L1410 335 M150 435 L390 555 L1410 455 M150 530 L390 650 L1410 580"/>
    <path d="M350 210 L590 330 V790 M555 175 L795 295 V760 M760 140 L1000 260 V735 M965 105 L1205 225 V705"/>
  </g>
  <g opacity="0.16" stroke="#2d7fd7" fill="none" stroke-dasharray="4 8"><path d="M150 245 L1410 765 M150 655 L1410 215"/><path d="M305 220 L545 345 L545 780 M505 185 L745 310 L745 760 M705 150 L945 275 L945 735 M905 115 L1145 240 L1145 710"/></g>
  <polygon points="1165,70 1410,215 1410,765 1165,490" fill="url(#plane)" stroke="#ff536d" stroke-width="4"/>
  <line x1="1165" y1="70" x2="1165" y2="490" stroke="#ff7182" stroke-width="5"/>
  <line x1="1410" y1="215" x2="1410" y2="765" stroke="#ff7182" stroke-width="5"/>
  <text x="1450" y="470" fill="#ff657a" font-family="Segoe UI, Arial, sans-serif" font-size="29">frontal</text>
  <text x="1450" y="506" fill="#ff657a" font-family="Segoe UI, Arial, sans-serif" font-size="29">time plane</text>
  <text x="210" y="355" fill="#23eaff" font-family="Segoe UI, Arial, sans-serif" font-size="24">root A</text>
  <text x="210" y="505" fill="#ff67d8" font-family="Segoe UI, Arial, sans-serif" font-size="24">root B</text>
  <text x="210" y="640" fill="#ffce5a" font-family="Segoe UI, Arial, sans-serif" font-size="24">root C</text>
  <g fill="none" stroke-linecap="round" stroke-linejoin="round" filter="url(#glow)">
    <polyline points="270,350 385,322 505,292 630,265 760,238 895,205 1030,172 1240,160" stroke="#23eaff" stroke-width="5"/>
    <polyline points="505,292 615,222 755,190 895,162 1040,128 1300,170" stroke="#66d8ff" stroke-width="3.4"/>
    <polyline points="630,265 760,318 900,348 1042,378 1280,332" stroke="#2fb8ff" stroke-width="3.1"/>
    <polyline points="760,238 890,288 1030,306 1172,330 1360,310" stroke="#4aa8ff" stroke-width="2.8"/>
    <polyline points="895,205 1015,234 1130,225 1260,275 1380,255" stroke="#7cc9ff" stroke-width="2.5"/>
    <polyline points="270,500 390,476 520,448 660,420 805,392 955,438 1100,420 1245,402" stroke="#ff67d8" stroke-width="5"/>
    <polyline points="520,448 635,535 770,578 920,610 1320,588" stroke="#ff8bdd" stroke-width="3.4"/>
    <polyline points="660,420 790,350 945,312 1105,282 1335,405" stroke="#c679ff" stroke-width="3.4"/>
    <polyline points="805,392 930,462 1070,493 1218,522 1380,455" stroke="#b45dff" stroke-width="3.2"/>
    <polyline points="955,438 1088,402 1210,430 1365,510" stroke="#ff45c8" stroke-width="2.8"/>
    <polyline points="270,635 400,650 535,682 675,705 815,685 958,638 1090,595 1245,558" stroke="#ffce5a" stroke-width="5"/>
    <polyline points="535,682 662,750 815,786 980,820 1300,725" stroke="#ffd86b" stroke-width="3.3"/>
    <polyline points="675,705 805,610 950,560 1090,500 1350,625" stroke="#ffb13d" stroke-width="3.7"/>
    <polyline points="815,685 950,732 1100,758 1230,740 1380,660" stroke="#ffeb8a" stroke-width="3"/>
  </g>
  <g fill="#07152a" stroke-width="3.4" filter="url(#glow)">
    <circle cx="270" cy="350" r="10" stroke="#23eaff"/><circle cx="385" cy="322" r="8" stroke="#23eaff"/><circle cx="505" cy="292" r="8" stroke="#23eaff"/><circle cx="630" cy="265" r="8" stroke="#23eaff"/><circle cx="760" cy="238" r="8" stroke="#23eaff"/><circle cx="895" cy="205" r="8" stroke="#23eaff"/><circle cx="1030" cy="172" r="8" stroke="#23eaff"/><circle cx="1240" cy="160" r="9" stroke="#23eaff"/>
    <circle cx="755" cy="190" r="5" stroke="#66d8ff"/><circle cx="1040" cy="128" r="5" stroke="#66d8ff"/><circle cx="1300" cy="170" r="8" stroke="#66d8ff"/><circle cx="900" cy="348" r="5" stroke="#2fb8ff"/><circle cx="1280" cy="332" r="8" stroke="#2fb8ff"/><circle cx="1172" cy="330" r="5" stroke="#4aa8ff"/><circle cx="1360" cy="310" r="8" stroke="#4aa8ff"/><circle cx="1260" cy="275" r="5" stroke="#7cc9ff"/><circle cx="1380" cy="255" r="8" stroke="#7cc9ff"/>
    <circle cx="270" cy="500" r="10" stroke="#ff67d8"/><circle cx="390" cy="476" r="8" stroke="#ff67d8"/><circle cx="520" cy="448" r="8" stroke="#ff67d8"/><circle cx="660" cy="420" r="8" stroke="#ff67d8"/><circle cx="805" cy="392" r="8" stroke="#ff67d8"/><circle cx="955" cy="438" r="8" stroke="#ff67d8"/><circle cx="1100" cy="420" r="7" stroke="#ff67d8"/><circle cx="1245" cy="402" r="9" stroke="#ff67d8"/>
    <circle cx="770" cy="578" r="5" stroke="#ff8bdd"/><circle cx="1320" cy="588" r="8" stroke="#ff8bdd"/><circle cx="945" cy="312" r="5" stroke="#c679ff"/><circle cx="1335" cy="405" r="8" stroke="#c679ff"/><circle cx="1070" cy="493" r="5" stroke="#b45dff"/><circle cx="1380" cy="455" r="8" stroke="#b45dff"/><circle cx="1365" cy="510" r="8" stroke="#ff45c8"/>
    <circle cx="270" cy="635" r="10" stroke="#ffce5a"/><circle cx="400" cy="650" r="8" stroke="#ffce5a"/><circle cx="535" cy="682" r="8" stroke="#ffce5a"/><circle cx="675" cy="705" r="8" stroke="#ffce5a"/><circle cx="815" cy="685" r="8" stroke="#ffce5a"/><circle cx="958" cy="638" r="8" stroke="#ffce5a"/><circle cx="1090" cy="595" r="8" stroke="#ffce5a"/><circle cx="1245" cy="558" r="9" stroke="#ffce5a"/>
    <circle cx="815" cy="786" r="5" stroke="#ffd86b"/><circle cx="1300" cy="725" r="8" stroke="#ffd86b"/><circle cx="950" cy="560" r="6" stroke="#ffb13d"/><circle cx="1350" cy="625" r="8" stroke="#ffb13d"/><circle cx="1100" cy="758" r="5" stroke="#ffeb8a"/><circle cx="1380" cy="660" r="8" stroke="#ffeb8a"/>
  </g>
  <text x="780" y="868" fill="#aab6d8" font-family="Segoe UI, Arial, sans-serif" font-size="21" text-anchor="middle">Root labels mark the first internal event-nodes; each tree keeps its own color family.</text>
</svg>